# xmcd
#
# Track frame offsets:
#	150
#	3793
#	14901
#	30034
#	34471
#	47210
#	61407
#	66682
#	78034
#	90401
#	92286
#	105993
#	117173
#	120812
#	134152
#	147504
#	153189
#	163616
#
# Disc length: 2356 seconds
#
# Revision: 0
# Processed by: cddbd v1.5.2PL0 Copyright (c) Steve Scherf et al.
# Submitted via: EasyCDDAExtractor 16.0.9.1
#
DISCID=de093212
DTITLE=Jungowska, Zamachowski - ZIMA Teatr Malucha Cztery Pory Roku
DYEAR=2010
DGENRE=Country
TTITLE0=Wiatr i cztery pory roku-zima
TTITLE1=Pierwszy snieg
TTITLE2=Fiacik
TTITLE3=Wiatr i balwan
TTITLE4=Ulepmy balwana
TTITLE5=Mali kolednicy
TTITLE6=Wiatr o swietach
TTITLE7=Mikolaj nie zawiedzie
TTITLE8=Swieta krasnoludkow
TTITLE9=Wiatr i pingwin
TTITLE10=Frak pingwina
TTITLE11=Male pingwiny
TTITLE12=Wiatr o wronie
TTITLE13=Odlecialy juz bociany
TTITLE14=Stary kruk
TTITLE15=Wiatr i woda
TTITLE16=Wesole sopelki
TTITLE17=Wielka frajda
EXTD=
EXTT0=
EXTT1=
EXTT2=
EXTT3=
EXTT4=
EXTT5=
EXTT6=
EXTT7=
EXTT8=
EXTT9=
EXTT10=
EXTT11=
EXTT12=
EXTT13=
EXTT14=
EXTT15=
EXTT16=
EXTT17=
PLAYORDER=
